<svg xmlns="http://www.w3.org/2000/svg" viewBox="0 0 800 500">
  <g fill="#5c4030" fill-opacity="0.06">
    <rect x="220" y="360" width="360" height="80"/>
    <rect x="370" y="270" width="60" height="95"/>
    <path d="M370,270 Q400,220 430,270 Z"/>
    <rect x="397" y="200" width="6" height="25"/>
    <circle cx="400" cy="195" r="7"/>
    <rect x="255" y="310" width="45" height="55"/>
    <path d="M255,310 Q277,282 300,310 Z"/>
    <rect x="500" y="310" width="45" height="55"/>
    <path d="M500,310 Q522,282 545,310 Z"/>
    <rect x="240" y="390" width="18" height="50"/>
    <rect x="280" y="390" width="18" height="50"/>
    <rect x="320" y="390" width="18" height="50"/>
    <rect x="462" y="390" width="18" height="50"/>
    <rect x="502" y="390" width="18" height="50"/>
    <rect x="542" y="390" width="18" height="50"/>
  </g>
</svg>
